<svg xmlns="http://www.w3.org/2000/svg" version="1.1" width="600px" height="600px" viewBox="0 0 200 200" style="overflow:hidden!important;"><defs id="SvgjsDefs22121"></defs><g id="svga-group-wrapper"><g id="svga-group-backs-single"><path id="SvgjsPath22799" d="M0 151.2s23.5-5.1 41.7 13.1S59.6 192.1 87 200H0v-48.8z" fill="#ff0000" stroke-width="none" opacity="1"></path><path id="SvgjsPath22800" d="M133.6 180.5c-23.4-5.2-55.2-7.3-78.3-46.1S0 100 0 100v51.2s23.5-5.1 41.7 13.1S59.6 192.1 87 200h80.9s-10.9-14.4-34.3-19.5z" fill="#ff6700" stroke-width="none" opacity="1"></path><path id="SvgjsPath22801" d="M170.8 156c-37.1 6.4-73.1-10.7-84.6-38.1-17-40.6-35.4-62.5-53.5-65-17.9-2.5-32.8 0-32.8 0V100s32.3-4.5 55.3 34.4 54.9 41 78.3 46.1 34.3 19.5 34.3 19.5H200v-50.1s-13.7 3.4-29.2 6.1z" fill="#ffb600" stroke-width="none" opacity="1"></path><path id="SvgjsPath22802" d="M149.1 124.2c-28.7-13.4-33-30-37.2-43.8-4.2-13.7-16.3-50-45.7-65.3S0 8 0 8v45s14.9-2.5 32.8 0c18.1 2.5 36.4 24.5 53.5 65 11.5 27.4 47.5 44.5 84.6 38.1 15.5-2.7 29.2-6.1 29.2-6.1v-14.3c-.1-.1-22.3 1.9-51-11.5z" fill="#378c00" stroke-width="none" opacity="1"></path><path id="SvgjsPath22803" d="M170.3 103c-17.6-9.8-25.8-29.7-34.3-63.3C127.5 6 100 0 100 0H0v8s36.8-8.2 66.1 7.2 41.5 51.6 45.7 65.3 8.5 30.4 37.2 43.8c28.7 13.4 50.9 11.4 50.9 11.4v-21.2c.1-.1-12-1.7-29.6-11.5z" fill="#00b1ba" stroke-width="none" opacity="1"></path><path id="SvgjsPath22804" d="M166.1 37.8C152.1 27.3 149.9 0 149.9 0H100s27.5 6 36 39.6 16.6 53.5 34.3 63.3 29.7 11.4 29.7 11.4V61.1s-19.8-12.9-33.9-23.3z" fill="#0530e2" stroke-width="none" opacity="1"></path><path id="SvgjsPath22805" d="M149.9 0s2.1 27.3 16.2 37.8S200 61.1 200 61.1V0h-50.1z" fill="#8900ea" stroke-width="none" opacity="1"></path><path id="SvgjsPath22806" d="M74.2 196.2c-2.6-1.1-5-2.4-7.4-3.9l-1.7-1.2c-.6-.4-1.1-.9-1.7-1.3-.5-.4-1.1-.9-1.7-1.3-.5-.5-1-.9-1.6-1.4-.5-.5-1.1-.9-1.6-1.4l-1.5-1.5c-1-1-2-2.1-3-3.1-3.9-4.4-7.2-9.2-10.5-14.1-1.7-2.4-3.2-5-5.1-7.4-.5-.6-.9-1.2-1.4-1.8-.5-.6-1-1.2-1.6-1.8l-.8-.8-.9-.8c-.6-.5-1.3-1-1.9-1.4-2.7-1.7-5.7-2.9-8.7-3.6s-6.1-1-9.2-1c-3.1 0-6.1.3-9 .9-1.7.3-3.3.7-5 1.2v1.6c4.7-.2 9.3-.2 13.8.2 2.8.3 5.6.7 8.3 1.4 2.7.7 5.2 1.7 7.7 2.9 1.2.6 2.4 1.3 3.5 2.1.6.4 1.1.8 1.6 1.3.5.4 1 1 1.6 1.5 2.1 2 4 4.2 5.8 6.5 3.5 4.7 6.4 9.8 9.7 14.8 1.7 2.5 3.4 5 5.4 7.3.5.6 1 1.1 1.5 1.7s1.1 1.1 1.7 1.6c.6.5 1.1 1.1 1.7 1.5l1.8 1.4c1.9 1.5 3.9 2.7 6 3.9h14.6c-.9-.3-1.7-.6-2.6-.9-2.6-1.1-5.2-2-7.8-3.1zm82.6-11.6c-.5-.3-1.1-.6-1.6-.9l-1.6-.8c-1.1-.5-2.2-1.1-3.3-1.6l-3.4-1.4c-1.1-.5-2.3-.9-3.4-1.3-4.6-1.7-9.3-3-14-4-2.4-.6-4.8-.9-7.1-1.3-2.4-.3-4.8-.7-7.2-.9-2.4-.3-4.8-.5-7.2-.7-1.2-.1-2.3-.2-3.4-.3-1.1-.2-2.2-.3-3.3-.6-8.8-1.9-17.1-6.4-24.4-12.2-7.3-5.8-13.6-13.1-19-20.9-2.7-3.9-5.1-8-7.4-12.1-1.2-2.1-2.3-4.2-3.4-6.2l-1.7-3.1c-.6-1.1-1.2-2.2-1.9-3.2-2.8-4.1-6.3-7.9-10.4-10.7-2-1.5-4.2-2.7-6.4-3.8-2.2-1.1-4.6-1.9-6.9-2.7-2.4-.8-4.8-1.2-7.2-1.6-2.4-.4-4.8-.6-7.3-.7-1.8 0-3.5 0-5.3.1v2c6.4.5 12.6 1.7 18.5 3.8 2.1.8 4.2 1.7 6.2 2.8 2 1.1 4 2.2 5.8 3.6.9.6 1.8 1.4 2.6 2.1.8.8 1.7 1.5 2.5 2.3l1.2 1.2 1.1 1.3c.8.8 1.4 1.7 2.2 2.6.7.9 1.3 1.8 2 2.8.7 1 1.3 2 2 3 1.4 2 2.7 3.9 4.1 5.9 2.8 3.9 5.6 7.8 8.5 11.6 5.7 7.7 11.5 15.2 18.5 22 3.5 3.4 7.3 6.5 11.5 9s8.8 4.5 13.7 5.7c1.2.3 2.4.5 3.7.8 1.2.2 2.5.4 3.7.5 2.3.3 4.7.6 7 .9 2.3.3 4.6.7 7 1.1 2.3.4 4.6.8 6.9 1.3 9.2 1.8 18.1 4.4 26.5 8.3 4.2 1.9 8.2 4.3 12.1 6.9l2.9 2c.9.7 1.8 1.5 2.8 2.2l.9.7h1.9c-5.5-6.2-11.9-11.5-19-15.5zm-6.8-28.8c-5.6-.1-11.3-.7-16.8-1.7-5.5-1.1-10.8-2.7-15.9-5.1-10-4.9-18.3-12.8-24.3-22.6-1.5-2.4-3-4.9-4.3-7.4-1.4-2.5-2.7-5.1-4-7.7-2.5-5.2-4.9-10.5-7.3-15.8-1.2-2.6-2.4-5.3-3.7-7.9-1.2-2.6-2.5-5.2-3.9-7.8-2.8-5.2-6-10.2-9.9-14.7-4-4.5-8.7-8.4-14.1-11.2-5.3-2.9-11.1-4.8-17-5.8-.7-.1-1.5-.3-2.2-.4l-2.2-.2-2.2-.2h-4.4l-2.2.1c-1.5 0-3 .2-4.4.4-.7.1-1.5.2-2.2.3l-2.2.4c-1.4.3-2.9.6-4.3 1.1-.8.2-1.7.5-2.5.8v1.5c9.4-1.9 19-1.9 28.2.2 1.4.3 2.7.6 4 1.1l2 .6 1 .3 1 .4c1.3.5 2.6 1 3.9 1.6l3.7 1.9c.6.3 1.2.7 1.8 1 .6.4 1.2.7 1.8 1.1l1.6.9 1.7 1.2c2.2 1.7 4.3 3.6 6.2 5.6 7.9 8 14 17.9 19.1 28.3 2.5 5.2 4.9 10.5 7.2 15.8 2.4 5.3 4.7 10.6 7.5 15.8 2.7 5.2 6 10.3 10.2 14.6 4.1 4.4 9 8 14.4 10.8 10.7 5.6 22.9 7.9 34.7 8 11.9 0 23.6-1.8 34.9-5 5.1-1.5 10.2-3.2 15.1-5.2v-2.8c-5.3 1.6-10.7 3.1-16.1 4.2-11.2 2.3-22.6 3.6-33.9 3.5zm41.1-20.2-2.1-.1-2.1-.1c-.7 0-1.4-.1-2.1-.2-2.9-.2-5.6-.7-8.5-1.1-2.8-.6-5.6-1.1-8.3-2-2.8-.7-5.4-1.7-8.1-2.6-1.3-.5-2.6-1.1-3.9-1.7-1.3-.6-2.6-1-3.9-1.7-2.5-1.3-5.1-2.5-7.5-3.9-1.2-.7-2.4-1.5-3.6-2.2-1.1-.8-2.4-1.6-3.5-2.4-2.3-1.7-4.4-3.5-6.5-5.5-4.1-4-7.6-8.5-10.6-13.5-2.9-5-5.2-10.3-7.2-15.7-2-5.4-3.5-11-5.2-16.6-.8-2.8-1.7-5.6-2.6-8.4-.9-2.8-1.9-5.6-3-8.3-1.1-2.7-2.4-5.5-3.8-8.1-1.4-2.6-2.9-5.2-4.5-7.7-1.7-2.5-3.4-4.9-5.3-7.2s-4-4.5-6.2-6.6c-4.4-4.1-9.6-7.5-15.1-10.1C61.8 7.3 56 5.5 50 4.6c-5.9-.9-11.9-1.1-17.8-.8-3 .1-5.9.4-8.8.8-1.5.2-2.9.4-4.4.7l-4.3.8c-2.9.7-5.7 1.3-8.6 2.1-2 .6-4.1 1.2-6.1 1.9v.8C10.7 9 21.5 7.6 32.3 7.8c5.7 0 11.4.5 16.9 1.6 5.5 1.1 10.9 2.8 15.9 5.2 2.5 1.2 4.9 2.5 7.2 4.1 2.3 1.6 4.5 3.2 6.6 5.1 4.2 3.7 7.9 8 11.2 12.6 3.2 4.7 6.2 9.6 8.6 14.7 2.4 5.2 4.6 10.5 6.6 16 2 5.4 4.1 10.9 6.2 16.3 1.1 2.7 2.2 5.4 3.4 8.1.6 1.3 1.3 2.6 1.9 4 .7 1.3 1.3 2.6 2.1 3.9 1.4 2.6 2.9 5.1 4.6 7.5 1.6 2.5 3.5 4.8 5.4 7.1 3.9 4.5 8.4 8.6 13.4 11.8 2.5 1.7 5.1 3 7.8 4.4 1.3.7 2.7 1.2 4.1 1.9 1.4.6 2.7 1.2 4.1 1.7 5.6 2 11.4 3.5 17.3 4.3 3 .3 5.9.6 8.9.7.7 0 1.5.1 2.2.1l2.2-.1 2.2-.1 2.2-.2c2.2-.2 4.5-.5 6.7-.9v-2c-2.3.2-4.5.2-6.8.2l-2.1-.2zM118.9 6.8c1.3 1.3 2.5 2.7 3.6 4.1 2.2 2.9 4.4 5.9 6.3 9 1.9 3.1 3.6 6.4 5 9.8l1 2.6c.3.9.5 1.8.8 2.7.3.9.4 1.8.6 2.7.2.9.4 1.8.6 2.8 1.3 7.5 2.5 15 4.1 22.5.9 3.7 1.7 7.5 3 11.2.3.9.6 1.8 1 2.8l1.1 2.7.6 1.3.7 1.3c.4.9.9 1.8 1.3 2.6 1.9 3.5 4.2 6.8 6.9 9.7 2.7 3 5.8 5.6 9.3 7.7 3.5 2.1 7.4 3.5 11.2 4.4 3.9.9 7.7 1.4 11.6 1.6l2.9.1h2.9c1.9 0 3.8-.1 5.8-.2.3 0 .6-.1.9-.1v-2.4c-4.1-.3-8.1-.8-12.1-1.4-.9-.1-1.8-.3-2.7-.5l-1.4-.2-1.4-.3c-1.8-.3-3.6-.8-5.3-1.3-3.5-1.1-6.7-2.4-9.7-4.3-6.1-3.7-11-9-14.9-15.2-.5-.8-.9-1.6-1.4-2.4l-.7-1.2-.6-1.2-1.2-2.5-1.1-2.5c-.4-.8-.8-1.7-1.1-2.6l-1.1-2.6c-.7-1.7-1.3-3.5-1.9-5.3-2.4-7.1-4.1-14.5-5.1-22-.5-3.8-1-7.6-2-11.4-.9-3.8-2.2-7.5-4-11-1.8-3.5-3.9-6.8-6.5-9.8-1.3-1.5-2.6-2.9-4-4.3-1.4-1.3-2.8-2.6-4.3-3.8h-5.9c1.1.9 2.2 1.9 3.3 2.9 1.4 1.3 2.7 2.6 3.9 4zm32.4-1.4c.2 2.4.4 4.9 1 7.3.2 1.2.6 2.4.8 3.6.4 1.2.7 2.4 1.1 3.5.7 2.3 1.7 4.6 2.8 6.8 1.2 2.2 2.5 4.3 4 6.2.7 1 1.5 1.9 2.3 2.9.4.5.8.9 1.2 1.4s.8.9 1.2 1.4c.9.8 1.7 1.7 2.5 2.6l1.2 1.3 1.2 1.3c.8.9 1.6 1.7 2.4 2.7.8.9 1.7 1.7 2.5 2.6.8.9 1.7 1.7 2.6 2.5.9.8 1.8 1.7 2.8 2.3l3 2.1c1.1.6 2.1 1.2 3.2 1.8 1.1.5 2.2 1 3.4 1.5 1.1.4 2.3.8 3.5 1.2 1.2.3 2.4.7 3.6.9.8.2 1.6.3 2.4.4v-3.1c-1.6-.6-3.1-1.2-4.6-1.9l-3.1-1.5-3.1-1.5c-1-.6-2-1.1-3-1.7-1-.6-2-1.2-3-1.7s-2-1.2-3-1.7-2-1.1-3-1.8c-1-.6-1.9-1.3-2.9-2-.9-.7-1.8-1.5-2.7-2.3-.4-.4-.9-.8-1.3-1.2l-1.2-1.3c-.8-.9-1.6-1.8-2.3-2.7-1.4-1.8-2.6-3.8-3.6-5.9-2-4.2-3.4-8.5-4.6-12.9-1.1-4.4-1.6-9-2.1-13.5-.2-1.7-.3-3.3-.4-5h-5c0 1.8 0 3.6.2 5.4z" fill="#ffffff" stroke-width="none" opacity="1"></path></g><g id="svga-group-humanwrap-move" transform="matrix(1,0,0,1,0,0)"><g id="svga-group-humanwrap" transform="matrix(1,0,0,1,0,0)"><g id="svga-group-hair-back-move" transform="matrix(1,0,0,1,0,0)"><g id="svga-group-hair-back" transform="matrix(1,0,0,1,0,0)"><path id="SvgjsPath22885" d="m61.9 125.5 1.3 15.8s0 6.9-.2 7.4-.6 6-.6 6l1.7 2.5 3.9-1.7-.5-8.2.2-9.8.5-4.9s.8 9.3.8 9.8.2 10.4.2 10.4l-.2 6.3 2.2 3 2.7-2.4-1.1-12.6.9-11.7.8 3s-.2 9.6-.2 10.1.6 11.7.6 11.7l2.1 2.7 6.8-10.4-2.5-14.7-6-10.7-8-2.8-4.7-.6-.7 1.8z" fill="#3b3128" stroke-width="none" opacity="1"></path><path id="SvgjsPath22886" d="m80.9 102.3-20.5-3.4 1.5 26.6 1.3 15.8s0 6.9-.2 7.4-.6 6-.6 6l1.7 2.5 1.3-.6-1.2-3.4.5-24 3.4 2.4v1.3-.4s.8 9.3.8 9.8.2 10.4.2 10.4l-.2 6.3 2.2 3 1.3-1.1-1.2-4.6-.5-23.3 2.9.5.1 2 .8 2.9s-.2 9.6-.2 10.1.6 11.7.6 11.7l2.1 2.7.4-.7 5-17.4-1.5-42.5zm57.2 23.2-1.3 15.8s0 6.9.2 7.4.6 6 .6 6l-1.7 2.5-3.9-1.7.5-8.2-.2-9.8-.5-4.9s-.8 9.3-.8 9.8-.2 10.4-.2 10.4l.2 6.3-2.2 3-2.7-2.4 1.1-12.6-.9-11.7-.8 3s.2 9.6.2 10.1-.6 11.7-.6 11.7l-2.1 2.7-6.8-10.4 2.5-14.7 6-10.7 8-2.8 4.7-.6.7 1.8z" fill="#2c2219" stroke-width="none" opacity="1"></path><path id="SvgjsPath22887" d="m116.1 102.3 21.6-8 .3 31.3-1.3 15.8s0 6.9.2 7.4.6 6 .6 6l-1.7 2.5-1.3-.6 1.2-3.4-.5-24-3.4 2.4v1.3-.4s-.8 9.3-.8 9.8-.2 10.4-.2 10.4l.2 6.3-2.2 3-1.3-1.1 1.2-4.6.5-23.3-2.9.5-.1 2-.8 2.9s.2 9.6.2 10.1-.6 11.7-.6 11.7l-2.1 2.7-.4-.7-5-17.4-1.4-42.6z" fill="#3b3128" stroke-width="none" opacity="1"></path></g></g><g id="svga-group-humanbody-back"><path id="SvgjsPath22518" d="m170 180.3-27.3-6.9-18-9.9-1.5-28.2H76.8l-1.5 28.2-18 9.9-27.3 6.9-9.1 19.7-3 20h164.2l-3-20z" fill="#f6e4e2" stroke-width="none" opacity="1" stroke="none"></path><path id="SvgjsPath22519" d="m76.8 135.3-1.5 28.2-18 9.9-27.3 6.9-9.1 19.7-3 20h14.6v-20l2.7-17.7 23.8-6.4 24.7-8.3 3.5-32.3z" fill="#d7a19b" stroke-width="none" opacity="1" stroke="none"></path></g><g id="svga-group-chinshadow-single"><path id="SvgjsPath22747" d="m124.1 152-.9-16.7H76.8l-1 18.5 21.3 3.8v.1l.1-.1v.1-.1l25.1-4.5z" fill="#c8837c" stroke-width="none" opacity="1" stroke="none"></path></g><g id="svga-group-humanbody-front"><path id="SvgjsPath22520" d="m92.8 168.3 2 7.9 6.9 4.6s-8.5-3-8.7-3.6c-.2-.6-.2-8.9-.2-8.9z" fill="#d7a19b" stroke-width="none" opacity="1" stroke="none"></path></g><g id="svga-group-clothes-single"><path id="SvgjsPath22649" d="m143.53 172.73-10.43 16.82-18.47 10.43H85.37L66.9 189.55l-10.43-16.82-13.16 3.66 5.3 19.2.91 24.41H150.48l.91-24.41 5.3-19.2z" fill="#4b2824" stroke-width="none" opacity="1"></path><path id="SvgjsPath22650" d="m136.42 191.88-20.8 12.73H84.38l-20.8-12.73-9.77-17.83 8.49 18.39 21.65 12.88h32.1l21.65-12.88 8.49-18.39z" fill="#3c1a17" stroke-width="none" opacity="1"></path></g><g id="svga-group-head" transform="matrix(1,0,0,1,0,0)"><g id="svga-group-ears-left-move" transform="matrix(1,0,0,1,0,0)"><g id="svga-group-ears-left" transform="matrix(1,0,0,1,0,0)"><path id="SvgjsPath22659" d="m64.4 98.3-5.3-9.7-7-.9-2 7.2.4 8.9 7 11.4 6.1 4.5 3.8-11.6z" fill="#f6e4e2" stroke-width="none" opacity="1" stroke="none"></path><path id="SvgjsPath22660" d="m58.4 101.2-4.1-9.8-1.9 5.1.4 5 2.6 6.1-1.6-9.4 1.5-.7 1.3 10.8 2 2.1z" fill="#d7a19b" stroke-width="none" opacity="1" stroke="none"></path><path id="SvgjsPath22661" d="m60.7 101-3.2-11.6-5.4-1.7 7 .9 5.3 9.7 3 9.8-3.8 11.6-6.1-4.5 3.6.7z" fill="#e7c1bd" stroke-width="none" opacity="1" stroke="none"></path></g></g><g id="svga-group-ears-right-move" transform="matrix(1,0,0,1,0,0)"><g id="svga-group-ears-right" transform="matrix(1,0,0,1,0,0)"><path id="SvgjsPath22662" d="m135.6 98.3 5.3-9.7 7-.9 2 7.2-.4 8.9-7 11.4-6.1 4.5-3.8-11.6z" fill="#f6e4e2" stroke-width="none" opacity="1" stroke="none"></path><path id="SvgjsPath22663" d="m141.6 101.2 4.1-9.8 1.9 5.1-.4 5-2.6 6.1 1.6-9.4-1.5-.7-1.3 10.8-2 2.1z" fill="#d7a19b" stroke-width="none" opacity="1" stroke="none"></path><path id="SvgjsPath22664" d="m139.3 101 3.2-11.6 5.4-1.7-7 .9-5.3 9.7-3 9.8 3.8 11.6 6.1-4.5-3.6.7z" fill="#e7c1bd" stroke-width="none" opacity="1" stroke="none"></path></g></g><g id="svga-group-faceshape-wrap" transform="matrix(1,0,0,1,0,0)"><g id="svga-group-faceshape-single"><path id="SvgjsPath22737" d="M138.1 60c-6.9-11.6-19.7-19.5-19.7-19.5-7.2-1.5-18.4-2.3-18.4-2.3s-11.1.8-18.4 2.3c0 0-12.8 7.9-19.7 19.5 0 0-5.1 14.5-5.3 24.8l2.7 31.9 3.5 23.4 12.1 7.4L100 152l25.1-4.5 12.1-7.4 3.5-23.4 2.7-31.9c-.2-10.3-5.3-24.8-5.3-24.8z" fill="#f6e4e2" stroke-width="none" opacity="1" stroke="none"></path><path id="SvgjsPath22738" d="m99.7 147.6-24.6-2.2-10-7-4.5-54.5 4.7-22.1c2.5-4.3 17.5-18.7 17.5-18.7l17.2-3 18.4.4c-7.2-1.5-18.4-2.3-18.4-2.3s-11.1.8-18.4 2.3c0 0-12.8 7.9-19.7 19.5 0 0-5.1 14.5-5.3 24.8l2.7 31.9 3.5 23.4 12.1 7.4L100 152l25.1-4.5 12.1-7.4-13.4 5.5-24.1 2z" fill="#d7a19b" stroke-width="none" opacity="1" stroke="none"></path></g></g><g id="svga-group-mouth-single-move" transform="matrix(1,0,0,1,0,0)"><g id="svga-group-mouth-single" transform="matrix(1,0,0,1,0,0)"><path id="SvgjsPath22861" d="m86.1 127.33 9.7-2.33 4.34 1.24 4.56-1.44 9.57 2.17s-9.27 1.36-9.41 1.41c-.14.05-4.32 3.14-4.32 3.14s-5.13-2.91-5.36-2.91c-.22-.01-9.08-1.28-9.08-1.28z" fill="#e0a4a0" stroke-width="none" opacity="1" transform="translate(0 2)"></path><path id="SvgjsPath22862" d="m84.12 127.08 11.78 1.12 5 2.4 3.8-2.7 11.52-1.23-11.12 2.23-4.5 3.3-5.1-3.1z" fill="#d18580" stroke-width="none" opacity="1" transform="translate(0 2)"></path><path id="SvgjsPath22863" d="m92.3 134.6 1.4 1.3 14.2-.2 1.8-1z" fill="#d7a19b" stroke-width="none" opacity="1" transform="translate(0 2)"></path></g></g><g id="svga-group-eyes-left-move" transform="matrix(1,0,0,1,0,0)"><g id="svga-group-eyes-left" transform="matrix(1,0,0,1,0,0)"><g id="svga-group-eyesback-left"><path id="SvgjsPath22695" d="m91.9 98.1-5.1-4.3-9.6-2.5-9.6.3 8.8 6.6 4.1 1.1z" fill="#ffffff" stroke-width="none" opacity="1"></path></g><g id="svga-group-eyesiriswrapper-left" transform="matrix(1,0,0,1,0,0)"><g id="svga-group-eyesiriscontrol-left" transform="matrix(1,0,0,1,0,0)"><g id="svga-group-eyesiris-left" transform="matrix(1,0,0,1,0,0)"><path id="SvgjsPath22751" d="m77 97.9-1.3-3.8 1.9-3.7 3.9-1.2 3.6 1.9 1.2 3.8-1.8 3.6-3.9 1.3z" fill="#fdd70e" stroke-width="none" opacity="1"></path><path id="SvgjsPath22752" d="m81.5 89.5 3.4 1.8 1.2 3.7-1.8 3.4-3.7 1.2-3.4-1.8-1.2-3.7 1.8-3.4 3.7-1.2m0-.6-4.1 1.3-2 3.8 1.3 4.1 3.8 2 4.1-1.3 2-3.8-1.3-4.1-3.8-2z" fill="#debb00" stroke-width="none" opacity="1"></path><path id="SvgjsPath22753" d="m82.2 91.6-2.4.1-1.6 1.7v2.3l1.7 1.6h2.4l1.6-1.7v-2.3z" fill="#000000" stroke-width="none" opacity="1"></path><path id="SvgjsPath22754" d="m77.9 91.2.9 1.1-1.2-.7.3-.4zm2.1-1v1.3l-.6-1.1.6-.2zm1.7-.2-.3 1.3-.3-1.3h.6zm1.7.9-.7.8.2-1.1.5.3zm1.5 1-1.3.8 1-1.2.3.4zm.6 1.9-1.4.1 1.2-.6.2.5zm.1 1.5-1.2-.4 1.3-.1-.1.5zm-.9 1.4-.8-.7 1.1.3-.3.4zm-.8 1.5-.7-1.3 1.1.9-.4.4zm-1.8.6-.1-1.4.6 1.2-.5.2zm-1.8.1.5-1.2.1 1.3-.6-.1zm-2-1.1.9-.9-.4 1.2-.5-.3zM77 96.2l1.1-.3-.8.8-.3-.5zm-.4-1.7 1.3.3-1.3.2v-.5zm.5-1.9.8.7-1.1-.2.3-.5z" fill="#c7a800" stroke-width="none" opacity="1"></path><path id="SvgjsPath22755" d="m78 92 2.2 2 .6-.4-1.3-2.7z" fill="#ffffff" stroke-width="none" opacity="1"></path><path id="SvgjsPath22756" d="m82.1 96.6.5 1 .9-.4-.5-1z" fill="#ffffff" stroke-width="none" opacity="1"></path></g></g></g><g id="svga-group-eyesfront-left"><path id="SvgjsPath22703" d="M67.1 89.3v11.9l7.9 8.4h11.2l7.9-8.4V89.3l-7.9-8.4H75l-7.9 8.4zm.5 2.3 9.6-.3 9.6 2.5 5.1 4.3-11.4 1.1-4.1-1.1-8.8-6.5z" fill="#f6e4e2" stroke-width="none" opacity="1" stroke="none"></path><path id="SvgjsPath22704" d="m92.7 99.1-6.1-5-9.4-2.5-9.8.2 2.1-1.9 9.8-2.3 8.9 2.5 4.4 7.8z" fill="#d7a19b" stroke-width="none" opacity="1" stroke="none"></path></g></g></g><g id="svga-group-eyes-right-move" transform="matrix(1,0,0,1,0,0)"><g id="svga-group-eyes-right" transform="matrix(1,0,0,1,0,0)"><g id="svga-group-eyesback-right"><path id="SvgjsPath22696" d="m108.1 98.1 5.1-4.3 9.6-2.5 9.6.3-8.8 6.6-4.1 1.1z" fill="#ffffff" stroke-width="none" opacity="1"></path></g><g id="svga-group-eyesiriswrapper-right" transform="matrix(1,0,0,1,0,0)"><g id="svga-group-eyesiriscontrol-right" transform="matrix(1,0,0,1,0,0)"><g id="svga-group-eyesiris-right" transform="matrix(1,0,0,1,0,0)"><path id="SvgjsPath22757" d="m114.9 97.9-1.2-3.8 1.8-3.7 3.9-1.2 3.6 1.9 1.3 3.8-1.9 3.6-3.9 1.3z" fill="#fdd70e" stroke-width="none" opacity="1"></path><path id="SvgjsPath22758" d="m119.4 89.5 3.4 1.8L124 95l-1.8 3.4-3.7 1.2-3.4-1.8-1.2-3.7 1.8-3.4 3.7-1.2m0-.6-4.1 1.3-2 3.8 1.3 4.1 3.8 2 4.1-1.3 2-3.8-1.3-4.1-3.8-2z" fill="#debb00" stroke-width="none" opacity="1"></path><path id="SvgjsPath22759" d="m120.1 91.6-2.4.1-1.6 1.7v2.3l1.7 1.6h2.4l1.6-1.7v-2.3z" fill="#000000" stroke-width="none" opacity="1"></path><path id="SvgjsPath22760" d="m115.9 91.2.8 1.1-1.2-.7.4-.4zm2-1v1.3l-.5-1.1.5-.2zm1.7-.2-.3 1.3-.3-1.3h.6zm1.7.9-.7.8.3-1.1.4.3zm1.5 1-1.3.8 1-1.2.3.4zm.6 1.9-1.3.1 1.1-.6.2.5zm.1 1.5-1.2-.4 1.3-.1-.1.5zm-.9 1.4-.8-.7 1.1.3-.3.4zm-.8 1.5-.7-1.3 1.1.9-.4.4zm-1.8.6-.1-1.4.6 1.2-.5.2zm-1.8.1.5-1.2.1 1.3-.6-.1zm-2-1.1.9-.9-.4 1.2-.5-.3zm-1.2-1.6 1-.3-.8.8-.2-.5zm-.5-1.7 1.3.3-1.3.2v-.5zm.5-1.9.8.7-1-.2.2-.5z" fill="#c7a800" stroke-width="none" opacity="1"></path><path id="SvgjsPath22761" d="m115.9 92 2.2 2 .6-.4-1.3-2.7z" fill="#ffffff" stroke-width="none" opacity="1"></path><path id="SvgjsPath22762" d="m120 96.6.5 1 .9-.4-.5-1z" fill="#ffffff" stroke-width="none" opacity="1"></path></g></g></g><g id="svga-group-eyesfront-right"><path id="SvgjsPath22705" d="M125 80.8h-11.2l-7.9 8.4v11.9l7.9 8.4H125l7.9-8.4V89.3l-7.9-8.5zm-1.4 17.4-4.1 1.1-11.4-1.1 5.1-4.3 9.6-2.5 9.6.3-8.8 6.5z" fill="#f6e4e2" stroke-width="none" opacity="1" stroke="none"></path><path id="SvgjsPath22708" d="m107.3 99.1 6.1-5 9.4-2.5 9.8.2-2.1-1.9-9.8-2.3-8.9 2.5-4.4 7.8z" fill="#d7a19b" stroke-width="none" opacity="1" stroke="none"></path></g></g></g><g id="svga-group-facehighlight-single"></g><g id="svga-group-eyebrows-left-move" transform="matrix(1,0,0,1,0,0)"><g id="svga-group-eyebrows-left-rotate" transform="matrix(1,0,0,1,0,0)"><g id="svga-group-eyebrows-left" transform="matrix(1,0,0,1,0,0)"><path id="SvgjsPath22639" d="M92.1 89.1 91 87.9l.1-3.3 1 4.5zm-1.9-1.2-2-1.9-1.6-4.9 3.6 6.8zm-3.8-5.3 1.7 3.7-5.4-6.3 3.7 2.6zm-.8 2-3.1-1.3-3.1-3.2 6.2 4.5zm-7.9-4.2 4.6 3.1-2.2-.4-2.4-2.7zm12.5 3.5.4 3.8-2.4-5.9 2 2.1zm-12.3-2.5 2.4 2.3-6.8-3.1 4.4.8zm-2.9.5 3.7 1.5-6.8-1 3.1-.5zm-4.4 1.5 3.1.6-6.7.3 3.6-.9zm-3.9 2.4 3.4-.2-4.5 1.3 1.1-1.1zm-.7 1.5 1.7-.7-2.5 1.9.8-1.2zM85.6 84l-3.2-2-2.2-2.5 3 1.7 2.4 2.8zm-16-1 2-.3s3.6.5 3.8.6l-2.8.1-3-.4zm-3.8 1.6 5.3.1-3.3.7-2-.8zm20.5-4.4 1.6 1.7.8 2.1-2.4-3.8zm6.2 8.3-.1-1.5.5-1.5-.4 3z" fill="#3b3128" stroke-width="none" opacity="1"></path></g></g></g><g id="svga-group-eyebrows-right-move" transform="matrix(1,0,0,1,0,0)"><g id="svga-group-eyebrows-right-rotate" transform="matrix(1,0,0,1,0,0)"><g id="svga-group-eyebrows-right" transform="matrix(1,0,0,1,0,0)"><path id="SvgjsPath22640" d="m107.9 89.1 1.1-1.2-.1-3.3-1 4.5zm1.9-1.2 2.1-1.8 1.6-4.9-3.7 6.7zm3.8-5.3-1.7 3.7 5.4-6.3-3.7 2.6zm.8 2 3.1-1.3 3.1-3.2-6.2 4.5zm7.9-4.2-4.6 3.1 2.2-.4 2.4-2.7zm-12.5 3.5-.4 3.8 2.4-5.9-2 2.1zm12.3-2.5-2.4 2.3 6.8-3.1-4.4.8zm2.9.5-3.7 1.5 6.8-1-3.1-.5zm4.4 1.5-3.1.6 6.7.3-3.6-.9zm3.9 2.4-3.4-.2 4.5 1.3-1.1-1.1zm.7 1.5-1.7-.7 2.5 1.9-.8-1.2zM114.4 84l3.2-2 2.2-2.5-3 1.7-2.4 2.8zm16-1-2-.3s-3.6.5-3.8.6l2.8.1 3-.4zm3.7 1.6-5.3.1 3.3.7 2-.8zm-20.4-4.4-1.6 1.7-.8 2.1 2.4-3.8zm-6.2 8.3.2-1.5-.5-1.5.3 3z" fill="#3b3128" stroke-width="none" opacity="1"></path></g></g></g><g id="svga-group-beardwrap" transform="matrix(1,0,0,1,0,0)"><g id="svga-group-beard-single-move" transform="matrix(1,0,0,1,0,0)"><g id="svga-group-beard-single" transform="matrix(1,0,0,1,0,0)"><path id="SvgjsPath22630" d="m91.09 140.58 2.53 6.84 6.18 4.31 7.18-5.08 1.98-6.18-9.05 1.11z" fill="#3b3128" stroke-width="none" opacity="1"></path><path id="SvgjsPath22631" d="m105.2 140.93-5.28.64-6.43-.72c.83 1.65 2.62 5.13 2.93 5.33.4.27 3.09 3.23 3.09 3.23l4.84-3.36.85-5.12z" fill="#2c2219" stroke-width="none" opacity="1"></path></g></g></g><g id="svga-group-mustache-single-move" transform="matrix(1,0,0,1,0,0)"><g id="svga-group-mustache-single" transform="matrix(1,0,0,1,0,0)"></g></g><g id="svga-group-nose-single-move" transform="matrix(1,0,0,1,0,0)"><g id="svga-group-nose-single" transform="matrix(1,0,0,1,0,0)"><path id="SvgjsPath22839" d="m108.74 116.21-4.95 1.23-1.77 2.5-2.13.32-2-.49-1.68-2.33-4.88-1.27-.08-3.53 2.5-2.9 2.09-1.64h9.17l3.9 4.59z" fill="#f6e4e2" stroke-width="none" opacity="1" transform="translate(0 1)"></path><path id="SvgjsPath22840" d="m97.78 92.85-2.11 5.62.92 5.82-1.39 4.5h2.91l2.05-1.39-2.51.59-1.19-.2 1.06-4.03-1.19-5.62 1.65-4.36z" fill="#d7a19b" stroke-width="none" opacity="1" transform="translate(0 1)"></path><path id="SvgjsPath22841" d="m109.23 112.62-3.16-3.57.26.99 2.17 2.64-.26 3.24-2.96.86.26-.73 1.91-.73.2-.53-2.63.26-3.1 4.36-1.91.33-1.81-.33-3.1-4.36-2.63-.26.2.53 1.91.73.26.73-2.96-.86-.26-3.24 2.17-2.64.26-.99-3.16 3.57s-.2 3.9.07 3.9c.26 0 5.2 1.26 5.2 1.26l1.78 2.58 2.08.26 2.17-.26 1.78-2.58s4.94-1.26 5.2-1.26c.26 0 .06-3.9.06-3.9z" fill="#d7a19b" stroke-width="none" opacity="1" transform="translate(0 1)"></path><path id="SvgjsPath22842" d="m102.33 93 2.09 5.28-.88 3.46.14-4z" fill="#d7a19b" stroke-width="none" opacity="1" transform="translate(0 1)"></path><path id="SvgjsPath22843" d="M97.03 109.7h7.08l3.17 3.05-4.64-.12-1.83 2.2-3.78-5.13z" fill="#fef7f6" stroke-width="none" opacity="1" transform="translate(0 1)"></path></g></g><g id="svga-group-hair-front" transform="matrix(1,0,0,1,0,0)"><path id="SvgjsPath22883" d="m143.8 81.9-.1-9.4-1.8-.9-1-10.5-1.8-.2-2.6-7.7-1.9-.4-3.7-6.7-2.6.2-4.1-4.8-2.6-.2-4.9-3.9-2.8.7-5.5-2.4-3.7 1.4-4.7-1.4-4.7 1.4-3.7-1.4-5.5 2.4-2.8-.7-4.9 3.9-2.6.2-4.1 4.8-2.5-.2-3.8 6.7-1.9.4-2.7 7.7-1.7.2-1 10.5-1.8.9-.1 9.4-1.4 1.3 4.1 12.2 3-3.7-1.6-8 3.5-1.8-.7-8.7 2.6-1.1 1-6.7 4.4-1 1.3-5.7 5.1-.8 1-4.7 4.6.2 3-3.4 4.8 2.7 4.9-2.5 4 2.3v.2l.2-.1.2.1v-.2l4-2.3 4.9 2.5 4.8-2.7 3 3.4 4.6-.2 1 4.7 5.1.8 1.3 5.7 4.5 1 .9 6.7 2.6 1.1-.7 8.7 3.5 1.8-1.6 8 3 3.7 4.1-12.2z" fill="#3b3128" stroke-width="none" opacity="1"></path><path id="SvgjsPath22884" d="M95.4 38.1c-.3 1.9-.3 3.8-.3 5.8.1 1.9.3 3.8.7 5.7.3-1.9.3-3.8.3-5.8-.1-1.9-.2-3.8-.7-5.7zm-10 6.4c0 1.7.1 3.4.5 5.1.4-1.7.5-3.4.5-5.1 0-1.7-.1-3.4-.5-5.1-.4 1.7-.5 3.4-.5 5.1zm-6.7-1.7c-.5 1.4-.7 2.9-.9 4.3 0 .8.1 1.5.2 2.3.1.8.2 1.5.4 2.3.2-.8.3-1.6.3-2.3.1-.8.1-1.5.1-2.3.1-1.4.1-2.9-.1-4.3zm-6.4 7.4c0-.7-.1-1.4-.2-2.2-.2.7-.4 1.4-.5 2.1l-.3 2.1c.1.9.2 1.9.3 2.8.2.9.3 1.8.7 2.8.2-1 .2-1.9.2-2.8 0-.9-.1-1.8-.2-2.8v-2zm-6.4 4.1c-.5 1.7-.7 3.3-.8 5 .3 1.7.6 3.3 1.2 5 .1-1.7 0-3.4-.2-5 .1-1.6.1-3.3-.2-5zm-4 10.9c-.2-.8-.4-1.6-.7-2.4-.1.8-.1 1.7-.1 2.5s.1 1.6.2 2.4c.3 1.6.7 3.2 1.4 4.8.1-1.7-.1-3.3-.4-4.9-.1-.8-.2-1.7-.4-2.4zm-3.4 8.9c-.2 1.5-.1 3 .1 4.4.2 1.5.5 2.9 1.1 4.3.2-1.5.1-3-.1-4.4-.3-1.4-.6-2.9-1.1-4.3zm45.4-30.3c-.1 1.9-.1 3.8.3 5.8.5-1.9.6-3.8.7-5.7.1-1.9.1-3.8-.3-5.8-.5 1.9-.6 3.8-.7 5.7zm9.7.7c0 1.7.1 3.4.5 5.1.4-1.7.5-3.4.5-5.1 0-1.7-.1-3.4-.5-5.1-.4 1.7-.5 3.4-.5 5.1zm7.7-1.7c-.3 1.5-.2 2.9-.1 4.4 0 .8 0 1.5.1 2.3.1.8.2 1.6.3 2.3.2-.8.3-1.5.4-2.3.1-.8.1-1.5.2-2.3-.1-1.6-.3-3-.9-4.4zm7.1 7.3c-.1-.7-.3-1.4-.5-2.1-.1.7-.2 1.5-.2 2.2 0 .7 0 1.4.1 2.1-.1.9-.1 1.8-.2 2.8 0 .9 0 1.9.2 2.8.3-.9.5-1.8.7-2.8.1-.9.2-1.8.3-2.8-.1-.8-.2-1.5-.4-2.2zm5.7 4.2c-.3 1.7-.3 3.3-.2 5-.2 1.7-.4 3.3-.2 5 .6-1.6 1-3.3 1.2-5-.1-1.7-.3-3.3-.8-5zm4 10.9c-.2.8-.3 1.6-.4 2.4-.3 1.6-.5 3.2-.4 4.9.7-1.5 1.1-3.1 1.4-4.8.1-.8.2-1.6.2-2.4 0-.8 0-1.7-.1-2.5-.4.8-.6 1.6-.7 2.4zm3.5 8.9c-.6 1.4-.9 2.8-1.1 4.3-.2 1.5-.3 2.9-.1 4.4.6-1.4.9-2.8 1.1-4.3.1-1.4.3-2.8.1-4.4z" fill="#2c2219" stroke-width="none" opacity="1"></path></g><g id="svga-group-glasses-single-move" transform="matrix(1,0,0,1,0,0)"><g id="svga-group-glasses-single" transform="matrix(1,0,0,1,0,0)"></g></g></g></g></g><rect id="svga-credit-rect" width="200" height="15" x="0" y="185" fill="#ecf0f1" opacity="0.5" style="display: none;"></rect><text id="svga-credit-text" font-family="Avenir Next, Roboto, Helvetica, Arial, sans-serif" font-size="10px" text-anchor="start" font-weight="400" size="10px" anchor="start" weight="400" fill="#333333" x="33.05412292480469" y="182.60824728012085" style="display: none;"><tspan id="SvgjsTspan22174" dy="13" x="33.05412292480469">Created on AvatarMaker.com</tspan></text></g></svg>